<?xml version="1.0" encoding="UTF-8" standalone="no"?>
<!-- Created with Inkscape (http://www.inkscape.org/) -->

<svg
   width="135.42395mm"
   height="130.50041mm"
   viewBox="0 0 135.42395 130.50041"
   version="1.1"
   id="svg5"
   sodipodi:docname="logo.svg"
   inkscape:version="1.1.1 (1:1.1+202109281949+c3084ef5ed)"
   xmlns:inkscape="http://www.inkscape.org/namespaces/inkscape"
   xmlns:sodipodi="http://sodipodi.sourceforge.net/DTD/sodipodi-0.dtd"
   xmlns="http://www.w3.org/2000/svg"
   xmlns:svg="http://www.w3.org/2000/svg">
  <sodipodi:namedview
     id="namedview7"
     pagecolor="#ffffff"
     bordercolor="#666666"
     borderopacity="1.0"
     inkscape:pageshadow="2"
     inkscape:pageopacity="0"
     inkscape:pagecheckerboard="true"
     inkscape:document-units="mm"
     showgrid="false"
     inkscape:zoom="1.0230034"
     inkscape:cx="210.65424"
     inkscape:cy="362.1689"
     inkscape:window-width="1920"
     inkscape:window-height="987"
     inkscape:window-x="1920"
     inkscape:window-y="0"
     inkscape:window-maximized="1"
     inkscape:current-layer="layer6"
     fit-margin-top="0"
     fit-margin-left="0"
     fit-margin-right="0"
     fit-margin-bottom="0" />
  <defs
     id="defs2">
    <inkscape:path-effect
       effect="spiro"
       id="path-effect49457"
       is_visible="true"
       lpeversion="1" />
    <inkscape:path-effect
       effect="spiro"
       id="path-effect48978"
       is_visible="true"
       lpeversion="1" />
    <marker
       style="overflow:visible"
       id="marker48162"
       refX="0"
       refY="0"
       orient="auto"
       inkscape:stockid="DotS"
       inkscape:isstock="true">
      <path
         transform="matrix(0.2,0,0,0.2,1.48,0.2)"
         style="fill:context-stroke;fill-rule:evenodd;stroke:context-stroke;stroke-width:1pt"
         d="m -2.5,-1 c 0,2.76 -2.24,5 -5,5 -2.76,0 -5,-2.24 -5,-5 0,-2.76 2.24,-5 5,-5 2.76,0 5,2.24 5,5 z"
         id="path48160" />
    </marker>
    <marker
       style="overflow:visible"
       id="marker48152"
       refX="0"
       refY="0"
       orient="auto"
       inkscape:stockid="DotM"
       inkscape:isstock="true">
      <path
         transform="matrix(0.4,0,0,0.4,2.96,0.4)"
         style="fill:context-stroke;fill-rule:evenodd;stroke:context-stroke;stroke-width:1pt"
         d="m -2.5,-1 c 0,2.76 -2.24,5 -5,5 -2.76,0 -5,-2.24 -5,-5 0,-2.76 2.24,-5 5,-5 2.76,0 5,2.24 5,5 z"
         id="path48150" />
    </marker>
    <marker
       style="overflow:visible"
       id="TriangleInS"
       refX="0"
       refY="0"
       orient="auto"
       inkscape:stockid="TriangleInS"
       inkscape:isstock="true">
      <path
         transform="scale(-0.2)"
         style="fill:context-stroke;fill-rule:evenodd;stroke:context-stroke;stroke-width:1pt"
         d="M 5.77,0 -2.88,5 V -5 Z"
         id="path14796" />
    </marker>
    <marker
       style="overflow:visible"
       id="Torso"
       refX="0"
       refY="0"
       orient="auto"
       inkscape:stockid="Torso"
       inkscape:isstock="true">
      <g
         transform="scale(0.7)"
         id="g14883">
        <path
           style="fill:none;fill-opacity:0.75;fill-rule:evenodd;stroke:context-stroke;stroke-width:1.25"
           d="m -4.7792281,-3.239542 c 2.350374,0.3659393 5.30026732,1.9375477 5.03715532,3.62748546 C -0.00518779,2.0778819 -2.2126741,2.6176539 -4.5630471,2.2517169 -6.9134221,1.8857769 -8.521035,0.75201414 -8.257922,-0.93792336 -7.994809,-2.6278615 -7.1296041,-3.6054813 -4.7792281,-3.239542 Z"
           id="path14869" />
        <path
           style="fill:none;fill-opacity:0.75;fill-rule:evenodd;stroke:context-stroke;stroke-width:1pt"
           d="M 4.4598789,0.08866574 C -2.5564571,-4.378332 5.2248769,-3.9061806 -0.84829578,-8.7197331"
           id="path14871" />
        <path
           style="fill:none;fill-opacity:0.75;fill-rule:evenodd;stroke:context-stroke;stroke-width:1pt"
           d="M 4.9298719,0.05752074 C -1.3872731,1.7494689 1.8027579,5.4782079 -4.9448731,7.5462725"
           id="path14873" />
        <rect
           style="fill:context-stroke;fill-rule:evenodd;stroke-width:1pt"
           width="2.6366582"
           height="2.7608147"
           x="-10.391706"
           y="-1.7408575"
           transform="matrix(0.527536,-0.849533,0.887668,0.460484,0,0)"
           id="rect14875" />
        <rect
           style="fill:context-stroke;fill-rule:evenodd;stroke-width:1pt"
           width="2.7327356"
           height="2.8614161"
           x="4.9587269"
           y="-7.9629307"
           transform="matrix(0.671205,-0.741272,0.790802,0.612072,0,0)"
           id="rect14877" />
        <path
           style="fill:#ff0000;fill-opacity:0.75;fill-rule:evenodd;stroke:context-stroke;stroke-width:1pt"
           d="m 16.779951,-28.685045 a 0.60731727,0.60731727 0 1 0 -1.214634,0 0.60731727,0.60731727 0 1 0 1.214634,0 z"
           transform="matrix(0,-1.109517,1.109517,0,25.96648,19.71619)"
           id="path14879" />
        <path
           style="fill:#ff0000;fill-opacity:0.75;fill-rule:evenodd;stroke:context-stroke;stroke-width:1pt"
           d="m 16.779951,-28.685045 a 0.60731727,0.60731727 0 1 0 -1.214634,0 0.60731727,0.60731727 0 1 0 1.214634,0 z"
           transform="matrix(0,-1.109517,1.109517,0,26.8245,16.99126)"
           id="path14881" />
      </g>
    </marker>
    <marker
       style="overflow:visible"
       id="CurvyCross"
       refX="0"
       refY="0"
       orient="auto"
       inkscape:stockid="CurvyCross"
       inkscape:isstock="true">
      <g
         transform="scale(0.6)"
         id="g14851">
        <path
           style="fill:none;fill-rule:evenodd;stroke:context-stroke;stroke-width:1pt"
           d="m 4.625493,-5.0456926 c -2.76,0 -5.00000002,2.24 -5.00000002,5.00000002 0,2.75999998 2.24000002,4.99999998 5.00000002,4.99999998"
           id="path14847" />
        <path
           style="fill:none;fill-rule:evenodd;stroke:context-stroke;stroke-width:1pt"
           d="m -5.4129913,-5.0456926 c 2.76,0 4.99999999,2.24 4.99999999,5.00000002 0,2.75999998 -2.23999999,4.99999998 -4.99999999,4.99999998"
           id="path14849" />
      </g>
    </marker>
    <marker
       style="overflow:visible"
       id="EmptyDiamondS"
       refX="0"
       refY="0"
       orient="auto"
       inkscape:stockid="EmptyDiamondS"
       inkscape:isstock="true">
      <path
         transform="scale(0.2)"
         style="fill:context-fill;fill-rule:evenodd;stroke:context-stroke;stroke-width:1pt"
         d="M 0,-7.0710768 -7.0710894,0 0,7.0710589 7.0710462,0 Z"
         id="path14769" />
    </marker>
    <marker
       style="overflow:visible"
       id="TriangleOutL"
       refX="0"
       refY="0"
       orient="auto"
       inkscape:stockid="TriangleOutL"
       inkscape:isstock="true">
      <path
         transform="scale(0.8)"
         style="fill:context-stroke;fill-rule:evenodd;stroke:context-stroke;stroke-width:1pt"
         d="M 5.77,0 -2.88,5 V -5 Z"
         id="path14799" />
    </marker>
    <marker
       style="overflow:visible"
       id="Tail"
       refX="0"
       refY="0"
       orient="auto"
       inkscape:stockid="Tail"
       inkscape:isstock="true">
      <g
         transform="scale(-1.2)"
         id="g14705">
        <path
           style="fill:none;fill-rule:evenodd;stroke:context-stroke;stroke-width:0.8;stroke-linecap:round"
           d="M -3.8048674,-3.9585227 0.54352094,0"
           id="path14693" />
        <path
           style="fill:none;fill-rule:evenodd;stroke:context-stroke;stroke-width:0.8;stroke-linecap:round"
           d="M -1.2866832,-3.9585227 3.0617053,0"
           id="path14695" />
        <path
           style="fill:none;fill-rule:evenodd;stroke:context-stroke;stroke-width:0.8;stroke-linecap:round"
           d="M 1.3053582,-3.9585227 5.6537466,0"
           id="path14697" />
        <path
           style="fill:none;fill-rule:evenodd;stroke:context-stroke;stroke-width:0.8;stroke-linecap:round"
           d="M -3.8048674,4.1775838 0.54352094,0.21974226"
           id="path14699" />
        <path
           style="fill:none;fill-rule:evenodd;stroke:context-stroke;stroke-width:0.8;stroke-linecap:round"
           d="M -1.2866832,4.1775838 3.0617053,0.21974226"
           id="path14701" />
        <path
           style="fill:none;fill-rule:evenodd;stroke:context-stroke;stroke-width:0.8;stroke-linecap:round"
           d="M 1.3053582,4.1775838 5.6537466,0.21974226"
           id="path14703" />
      </g>
    </marker>
    <marker
       style="overflow:visible"
       id="EmptyDiamondSstart"
       refX="0"
       refY="0"
       orient="auto"
       inkscape:stockid="EmptyDiamondSstart"
       inkscape:isstock="true">
      <path
         transform="matrix(0.2,0,0,0.2,1.2,0)"
         style="fill:context-fill;fill-rule:evenodd;stroke:context-stroke;stroke-width:1pt"
         d="M 0,-7.0710768 -7.0710894,0 0,7.0710589 7.0710462,0 Z"
         id="path14778" />
    </marker>
    <marker
       style="overflow:visible"
       id="DiamondL"
       refX="0"
       refY="0"
       orient="auto"
       inkscape:stockid="DiamondL"
       inkscape:isstock="true">
      <path
         transform="scale(0.8)"
         style="fill:context-stroke;fill-rule:evenodd;stroke:context-stroke;stroke-width:1pt"
         d="M 0,-7.0710768 -7.0710894,0 0,7.0710589 7.0710462,0 Z"
         id="path14736" />
    </marker>
    <marker
       style="overflow:visible"
       id="SemiCircleOut"
       refX="0"
       refY="0"
       orient="auto"
       inkscape:stockid="SemiCircleOut"
       inkscape:isstock="true">
      <path
         transform="matrix(0.6,0,0,0.6,4.2752958,0.4580676)"
         style="fill:context-stroke;fill-rule:evenodd;stroke:context-stroke;stroke-width:1pt"
         d="m -2.5,-0.80913858 c 0,2.75999998 -2.24,4.99999998 -5,4.99999998 v -10 c 2.76,0 5,2.24 5,5.00000002 z"
         id="path14838" />
    </marker>
    <marker
       style="overflow:visible"
       id="SemiCircleIn"
       refX="0"
       refY="0"
       orient="auto"
       inkscape:stockid="SemiCircleIn"
       inkscape:isstock="true">
      <path
         transform="scale(0.6)"
         style="fill:context-stroke;fill-rule:evenodd;stroke:context-stroke;stroke-width:1pt"
         d="m -0.37450702,-0.04569258 c 0,2.75999998 2.24000002,4.99999998 5.00000002,4.99999998 v -10 c -2.76,0 -5.00000002,2.24 -5.00000002,5.00000002 z"
         id="path14835" />
    </marker>
    <marker
       style="overflow:visible"
       id="TriangleInL"
       refX="0"
       refY="0"
       orient="auto"
       inkscape:stockid="TriangleInL"
       inkscape:isstock="true">
      <path
         transform="scale(-0.8)"
         style="fill:context-stroke;fill-rule:evenodd;stroke:context-stroke;stroke-width:1pt"
         d="M 5.77,0 -2.88,5 V -5 Z"
         id="path14790" />
    </marker>
    <marker
       style="overflow:visible"
       id="EmptyDiamondSend"
       refX="0"
       refY="0"
       orient="auto"
       inkscape:stockid="EmptyDiamondSend"
       inkscape:isstock="true">
      <path
         transform="matrix(0.2,0,0,0.2,-1.2,0)"
         style="fill:context-fill;fill-rule:evenodd;stroke:context-stroke;stroke-width:1pt"
         d="M 0,-7.0710768 -7.0710894,0 0,7.0710589 7.0710462,0 Z"
         id="path14787" />
    </marker>
    <marker
       style="overflow:visible"
       id="EmptyDiamondM"
       refX="0"
       refY="0"
       orient="auto"
       inkscape:stockid="EmptyDiamondM"
       inkscape:isstock="true">
      <path
         transform="scale(0.4)"
         style="fill:context-fill;fill-rule:evenodd;stroke:context-stroke;stroke-width:1pt"
         d="M 0,-7.0710768 -7.0710894,0 0,7.0710589 7.0710462,0 Z"
         id="path14766" />
    </marker>
    <marker
       style="overflow:visible"
       id="EmptyDiamondLstart"
       refX="0"
       refY="0"
       orient="auto"
       inkscape:stockid="EmptyDiamondLstart"
       inkscape:isstock="true">
      <path
         transform="matrix(0.8,0,0,0.8,5.6,0)"
         style="fill:context-fill;fill-rule:evenodd;stroke:context-stroke;stroke-width:1pt"
         d="M 0,-7.0710768 -7.0710894,0 0,7.0710589 7.0710462,0 Z"
         id="path14772" />
    </marker>
    <marker
       style="overflow:visible"
       id="DiamondMstart"
       refX="0"
       refY="0"
       orient="auto"
       inkscape:stockid="DiamondMstart"
       inkscape:isstock="true">
      <path
         transform="matrix(0.4,0,0,0.4,2.6,0)"
         style="fill:context-stroke;fill-rule:evenodd;stroke:context-stroke;stroke-width:1pt"
         d="M 0,-7.0710768 -7.0710894,0 0,7.0710589 7.0710462,0 Z"
         id="path14748" />
    </marker>
    <marker
       style="overflow:visible"
       id="Club"
       refX="0"
       refY="0"
       orient="auto"
       inkscape:stockid="Club"
       inkscape:isstock="true">
      <path
         transform="scale(0.6)"
         style="fill:context-stroke;fill-rule:evenodd;stroke:context-stroke;stroke-width:0.745879pt"
         d="m -1.5971367,-7.0977635 c -1.8892507,0 -3.426382,1.5371314 -3.426382,3.4263822 0,0.6566798 0.2383531,1.2269257 0.5594092,1.7481542 -0.038751,0.032111 -0.079672,0.058463 -0.1165436,0.093235 -0.6224234,-0.8549928 -1.5893983,-1.4451409 -2.7271199,-1.4451409 -1.8892515,-1e-7 -3.426382,1.5371314 -3.426382,3.42638214 0,1.88925076 1.5371305,3.42638216 3.426382,3.42638216 0.9934462,0 1.868619,-0.4420611 2.4940326,-1.1188187 -0.124687,0.3548915 -0.2097783,0.7214874 -0.2097783,1.1188187 0,1.8892506 1.5371313,3.4263822 3.426382,3.4263822 1.88925064,0 3.4263821,-1.5371316 3.4263821,-3.4263822 0,-0.7933959 -0.3155586,-1.4938285 -0.7691878,-2.0744763 C 2.4152718,1.7663868 3.7718375,2.2973711 4.7661444,3.8340272 4.0279463,3.0958289 3.5540908,1.7534117 3.5540908,-0.05852936 l -0.6293354,-0.04661745 0.5827179,-0.0233087 c 0,-1.81194107 0.4505466,-3.15435827 1.188745,-3.89255657 -0.9590906,1.4822308 -2.2571634,2.0263625 -3.5662345,2.3075635 0.4041964,-0.5619092 0.6992616,-1.213407 0.6992616,-1.9579327 0,-1.8892506 -1.53713146,-3.4263822 -3.4263821,-3.4263822 z"
         id="path14886" />
    </marker>
    <marker
       style="overflow:visible"
       id="SquareL"
       refX="0"
       refY="0"
       orient="auto"
       inkscape:stockid="SquareL"
       inkscape:isstock="true">
      <path
         transform="scale(0.8)"
         style="fill:context-stroke;fill-rule:evenodd;stroke:context-stroke;stroke-width:1pt"
         d="M -5,-5 V 5 H 5 V -5 Z"
         id="path14727" />
    </marker>
    <marker
       style="overflow:visible"
       id="marker18962"
       refX="0"
       refY="0"
       orient="auto"
       inkscape:stockid="Arrow2Lend"
       inkscape:isstock="true">
      <path
         transform="matrix(-1.1,0,0,-1.1,-1.1,0)"
         d="M 8.7185878,4.0337352 -2.2072895,0.01601326 8.7185884,-4.0017078 c -1.7454984,2.3720609 -1.7354408,5.6174519 -6e-7,8.035443 z"
         style="fill:context-stroke;fill-rule:evenodd;stroke:context-stroke;stroke-width:0.625;stroke-linejoin:round"
         id="path18960" />
    </marker>
    <marker
       style="overflow:visible"
       id="Arrow2Mend"
       refX="0"
       refY="0"
       orient="auto"
       inkscape:stockid="Arrow2Mend"
       inkscape:isstock="true">
      <path
         transform="scale(-0.6)"
         d="M 8.7185878,4.0337352 -2.2072895,0.01601326 8.7185884,-4.0017078 c -1.7454984,2.3720609 -1.7354408,5.6174519 -6e-7,8.035443 z"
         style="fill:context-stroke;fill-rule:evenodd;stroke:context-stroke;stroke-width:0.625;stroke-linejoin:round"
         id="path14684" />
    </marker>
    <marker
       style="overflow:visible"
       id="Arrow2Lend"
       refX="0"
       refY="0"
       orient="auto"
       inkscape:stockid="Arrow2Lend"
       inkscape:isstock="true">
      <path
         transform="matrix(-1.1,0,0,-1.1,-1.1,0)"
         d="M 8.7185878,4.0337352 -2.2072895,0.01601326 8.7185884,-4.0017078 c -1.7454984,2.3720609 -1.7354408,5.6174519 -6e-7,8.035443 z"
         style="fill:context-stroke;fill-rule:evenodd;stroke:context-stroke;stroke-width:0.625;stroke-linejoin:round"
         id="path14678" />
    </marker>
    <marker
       style="overflow:visible"
       id="Arrow2Send"
       refX="0"
       refY="0"
       orient="auto"
       inkscape:stockid="Arrow2Send"
       inkscape:isstock="true">
      <path
         transform="matrix(-0.3,0,0,-0.3,0.69,0)"
         d="M 8.7185878,4.0337352 -2.2072895,0.01601326 8.7185884,-4.0017078 c -1.7454984,2.3720609 -1.7354408,5.6174519 -6e-7,8.035443 z"
         style="fill:context-stroke;fill-rule:evenodd;stroke:context-stroke;stroke-width:0.625;stroke-linejoin:round"
         id="path14690" />
    </marker>
    <marker
       style="overflow:visible"
       id="DotS"
       refX="0"
       refY="0"
       orient="auto"
       inkscape:stockid="DotS"
       inkscape:isstock="true">
      <path
         transform="matrix(0.2,0,0,0.2,1.48,0.2)"
         style="fill:context-stroke;fill-rule:evenodd;stroke:context-stroke;stroke-width:1pt"
         d="m -2.5,-1 c 0,2.76 -2.24,5 -5,5 -2.76,0 -5,-2.24 -5,-5 0,-2.76 2.24,-5 5,-5 2.76,0 5,2.24 5,5 z"
         id="path14724" />
    </marker>
    <marker
       style="overflow:visible"
       id="DotM"
       refX="0"
       refY="0"
       orient="auto"
       inkscape:stockid="DotM"
       inkscape:isstock="true">
      <path
         transform="matrix(0.4,0,0,0.4,2.96,0.4)"
         style="fill:context-stroke;fill-rule:evenodd;stroke:context-stroke;stroke-width:1pt"
         d="m -2.5,-1 c 0,2.76 -2.24,5 -5,5 -2.76,0 -5,-2.24 -5,-5 0,-2.76 2.24,-5 5,-5 2.76,0 5,2.24 5,5 z"
         id="path14721" />
    </marker>
    <marker
       style="overflow:visible"
       id="Arrow1Mend"
       refX="0"
       refY="0"
       orient="auto"
       inkscape:stockid="Arrow1Mend"
       inkscape:isstock="true">
      <path
         transform="matrix(-0.4,0,0,-0.4,-4,0)"
         style="fill:context-stroke;fill-rule:evenodd;stroke:context-stroke;stroke-width:1pt"
         d="M 0,0 5,-5 -12.5,0 5,5 Z"
         id="path14666" />
    </marker>
    <marker
       style="overflow:visible"
       id="Arrow1Lend"
       refX="0"
       refY="0"
       orient="auto"
       inkscape:stockid="Arrow1Lend"
       inkscape:isstock="true">
      <path
         transform="matrix(-0.8,0,0,-0.8,-10,0)"
         style="fill:context-stroke;fill-rule:evenodd;stroke:context-stroke;stroke-width:1pt"
         d="M 0,0 5,-5 -12.5,0 5,5 Z"
         id="path14660" />
    </marker>
    <linearGradient
       id="linearGradient11271"
       inkscape:swatch="solid">
      <stop
         style="stop-color:#000000;stop-opacity:1;"
         offset="0"
         id="stop11269" />
    </linearGradient>
    <inkscape:path-effect
       effect="spiro"
       id="path-effect7582"
       is_visible="true"
       lpeversion="1" />
  </defs>
  <g
     inkscape:groupmode="layer"
     id="layer6"
     inkscape:label="Layer 5"
     style="display:inline"
     transform="translate(-53.905725,-24.564156)">
    <rect
       style="fill:#ffaa4e;fill-opacity:1;fill-rule:evenodd;stroke:#000000;stroke-width:3.85249;stroke-linecap:round;stroke-linejoin:round;stroke-miterlimit:4;stroke-dasharray:none;stroke-dashoffset:23.5438;stroke-opacity:1;paint-order:markers fill stroke"
       id="rect83663"
       width="131.51561"
       height="86.935837"
       x="-25.101559"
       y="102.97975"
       rx="27.678888"
       ry="43.467918"
       transform="matrix(0.81028563,-0.58603515,0.6071579,0.7945812,0,0)" />
  </g>
  <g
     inkscape:groupmode="layer"
     id="layer2"
     inkscape:label="Layer 2"
     style="display:inline"
     transform="translate(-53.905725,-24.564156)">
    <text
       xml:space="preserve"
       style="font-style:normal;font-weight:normal;font-size:10.5833px;line-height:125%;font-family:sans-serif;letter-spacing:0px;word-spacing:0px;fill:#000000;fill-opacity:1;stroke:none;stroke-width:0.264583px;stroke-linecap:butt;stroke-linejoin:miter;stroke-opacity:1"
       x="82.239738"
       y="42.448597"
       id="text21244"><tspan
         sodipodi:role="line"
         id="tspan21242"
         style="stroke-width:0.264583px"
         x="82.239738"
         y="42.448597" /></text>
  </g>
  <g
     inkscape:groupmode="layer"
     id="layer3"
     inkscape:label="Layer 3"
     style="display:inline;mix-blend-mode:normal"
     transform="translate(-53.905725,-24.564156)">
    <path
       style="display:inline;fill:none;fill-opacity:1;fill-rule:evenodd;stroke:#000000;stroke-width:23.326;stroke-linecap:round;stroke-linejoin:round;stroke-miterlimit:4;stroke-dasharray:none;stroke-dashoffset:0;stroke-opacity:1;paint-order:normal"
       d="M 65.568725,41.150446 C 236.97683,101.11174 -42.226859,86.463362 142.84648,122.13594 l 15.32507,2.94905"
       id="path15938"
       sodipodi:nodetypes="ccc" />
    <path
       style="display:inline;fill:none;fill-rule:evenodd;stroke:#959595;stroke-width:15.235;stroke-linecap:round;stroke-linejoin:round;stroke-miterlimit:4;stroke-dasharray:none;stroke-dashoffset:0;stroke-opacity:1;paint-order:normal"
       d="M 65.568725,41.150446 C 236.97683,101.11174 -42.226859,86.463362 142.84648,122.13594 l 15.32507,2.94905"
       id="path7428"
       sodipodi:nodetypes="ccc" />
  </g>
  <g
     inkscape:groupmode="layer"
     id="layer5"
     inkscape:label="Layer 4"
     style="display:inline"
     transform="translate(-53.905725,-24.564156)">
    <path
       style="display:inline;mix-blend-mode:normal;fill:none;fill-rule:evenodd;stroke:#000000;stroke-width:27.533;stroke-linecap:round;stroke-linejoin:miter;stroke-miterlimit:4;stroke-dasharray:none;stroke-opacity:1"
       d="m 134.73382,141.29807 c 2.79917,-1.35869 5.13727,-3.64705 6.55585,-6.41635 1.54835,-3.02265 1.98612,-6.50844 1.87738,-9.90284 -0.10873,-3.39441 -0.73564,-6.74737 -1.20677,-10.11068 -0.47113,-3.3633 -0.78659,-6.7907 -0.27255,-10.14772 0.51404,-3.35701 1.93014,-6.671095 4.46207,-8.934526 2.5325,-2.263938 6.10675,-3.311509 9.46067,-2.772812"
       id="path48976"
       inkscape:path-effect="#path-effect48978"
       inkscape:original-d="m 134.73382,141.29807 c 0,0 6.55611,-5.99681 6.55585,-6.41635 -2.7e-4,-0.41956 -6.22862,-28.6212 4.86013,-39.095766 16.53075,-15.61514 -2.98337,-8.032062 9.46067,-2.772812"
       sodipodi:nodetypes="cssc" />
  </g>
  <g
     inkscape:groupmode="layer"
     id="g48201"
     inkscape:label="Layer 3 copy"
     style="display:inline;mix-blend-mode:normal"
     transform="translate(-53.905725,-24.564156)">
    <path
       style="display:inline;fill:none;fill-opacity:1;fill-rule:evenodd;stroke:#000000;stroke-width:24.18;stroke-linecap:round;stroke-linejoin:round;stroke-miterlimit:4;stroke-dasharray:none;stroke-dashoffset:0;stroke-opacity:1;paint-order:normal"
       d="M 72.126924,36.654156 C 244.99866,90.469122 -36.589112,77.322278 150.06455,109.33824 l 15.45593,2.64676"
       id="path48195"
       sodipodi:nodetypes="ccc" />
    <path
       style="display:inline;fill:none;fill-rule:evenodd;stroke:#eaf79f;stroke-width:15.142;stroke-linecap:round;stroke-linejoin:round;stroke-miterlimit:4;stroke-dasharray:none;stroke-dashoffset:0;stroke-opacity:1;paint-order:normal"
       d="M 72.126929,36.65416 C 244.99867,90.469125 -36.589107,77.322282 150.06456,109.33824 l 15.45592,2.64676"
       id="path48197"
       sodipodi:nodetypes="ccc" />
  </g>
  <g
     inkscape:groupmode="layer"
     id="g49453"
     inkscape:label="Layer 4 copy"
     style="display:inline"
     transform="translate(-53.905725,-24.564156)">
    <path
       style="display:inline;mix-blend-mode:normal;fill:none;fill-rule:evenodd;stroke:#eaf79f;stroke-width:16.754;stroke-linecap:round;stroke-linejoin:round;stroke-miterlimit:4;stroke-dasharray:none;stroke-opacity:1;paint-order:normal"
       d="m 134.73382,141.29807 c 2.79888,-1.36111 5.13559,-3.65238 6.55138,-6.42401 1.54727,-3.02902 1.97955,-6.52124 1.86458,-9.92062 -0.11497,-3.39938 -0.74877,-6.75635 -1.22425,-10.12428 -0.47548,-3.36792 -0.79271,-6.801 -0.27457,-10.16263 0.51814,-3.36163 1.9453,-6.679132 4.49106,-8.934816 2.5409,-2.251378 6.12021,-3.279065 9.46845,-2.718572"
       id="path49451"
       inkscape:path-effect="#path-effect49457"
       inkscape:original-d="m 134.73382,141.29807 c 0,0 6.55163,-6.00397 6.55138,-6.42401 -2.7e-4,-0.42004 -6.22437,-28.6553 4.85682,-39.142346 16.51945,-15.633753 -2.96709,-7.984082 9.46845,-2.718572"
       sodipodi:nodetypes="cssc" />
  </g>
</svg>
